<?xml version="1.0" encoding="UTF-8"?>
<svg id="Capa_1" data-name="Capa 1" xmlns="http://www.w3.org/2000/svg" viewBox="0 0 614.31 214.02">
  <defs>
    <style>
      .cls-1 {
        fill: #fff;
        stroke-width: 0px;
      }
    </style>
  </defs>
  <g>
    <rect class="cls-1" x="186.16" y="71.07" width="70.89" height="12.88"/>
    <rect class="cls-1" x="215.16" y="91.07" width="12.88" height="51.72"/>
  </g>
  <polygon class="cls-1" points="163.51 71.06 163.51 142.69 176.39 142.69 176.39 84.15 163.51 71.06"/>
  <g>
    <g>
      <path class="cls-1" d="M298.72,130.38h-5.35c-9.03,0-16.38-7.38-16.38-16.46v-13.83c0-9.07,7.35-16.46,16.38-16.46h5.35v-12.57h-5.35c-15.93,0-28.89,13.02-28.89,29.02v13.83c0,16,12.96,29.02,28.89,29.02h5.35v-12.57Z"/>
      <path class="cls-1" d="M311.11,71.07h-5.48v12.57h5.48c9.03,0,16.38,7.38,16.38,16.46v13.83c0,9.07-7.35,16.46-16.38,16.46h-5.48v12.57h5.48c15.93,0,28.89-13.02,28.89-29.02v-13.83c0-16-12.96-29.02-28.89-29.02Z"/>
    </g>
    <rect class="cls-1" x="298.21" y="102.81" width="8.07" height="8.07"/>
  </g>
  <path class="cls-1" d="M402.57,105.06h-30.2l38.51,37.8h18.41l-25.4-24.93c12.03-.69,21.61-10.71,21.61-22.93v-10.7c0-7.21-5.85-13.07-12.99-13.07,0,0-12.92-.1-25.86-.15-6.48-.03-12.97-.04-17.84-.02-2.47,0-4.53.03-5.98.06-2.7.05-6.78.13-8.25,4.52q-.47,1.4-.33,67.32l12.88-.03c-.04-19.49-.08-46.94-.05-58.96,10.13-.06,31.26.05,45.39.16.09,0,.16.07.16.16v10.7c0,5.55-4.51,10.06-10.05,10.06Z"/>
  <path class="cls-1" d="M147.74,77.51c-.01-3.57-2.89-6.45-6.44-6.45h-.01s-20.25.04-30.75.04c-7.06,0-17.27,2.69-24.73,10.26-6.38,6.47-9.71,15.44-9.63,25.95.08,10.94-.15,33.66-.18,35.65h16.11l20.64-19.37v-17.53l-.1-.11-23.64,22.2c.05-7.25.09-15.51.05-20.94-.06-7.08,1.93-12.71,5.89-16.73,4.68-4.74,11.32-6.43,15.59-6.43,6.74,0,17.5-.02,24.34-.03l.24,58.92,12.88-.05-.26-65.38Z"/>
  <polygon class="cls-1" points="439.33 71.06 439.33 142.95 452.21 142.95 452.21 84.06 439.33 71.06"/>
  <g>
    <polygon class="cls-1" points="538.31 120.84 538.31 71.1 525.42 71.1 525.42 107.36 538.31 120.84"/>
    <polygon class="cls-1" points="465.95 95.4 465.95 142.92 478.83 142.92 478.83 108.99 465.95 95.4"/>
    <path class="cls-1" d="M525.42,121.4h0s-48.38-48.42-48.38-48.42c-1.82-1.82-4.61-2.4-7.05-1.46-2.44.94-4.04,3.21-4.04,5.73v2.14l23.24,23.6,38.02,38.06c1.24,1.24,2.93,1.9,4.65,1.9.81,0,1.62-.14,2.4-.44,2.44-.94,4.04-3.21,4.04-5.73v-2.42l-12.88-12.95Z"/>
  </g>
</svg>